<?xml version="1.0" encoding="UTF-8" ?>
<!DOCTYPE svg PUBLIC "-//W3C//DTD SVG 1.1//EN" "http://www.w3.org/Graphics/SVG/1.1/DTD/svg11.dtd">
<svg width="1594pt" height="1428pt" viewBox="0 0 1594 1428" version="1.1" xmlns="http://www.w3.org/2000/svg">
<g id="#ffffffff">
</g>
<g id="#000000ff">
<path fill="#000000" opacity="1.00" d=" M 563.56 13.50 C 574.58 9.26 586.51 11.01 598.02 10.79 C 601.70 25.84 606.22 40.79 608.84 56.05 C 578.35 242.32 546.12 429.08 537.13 617.93 C 535.38 688.98 536.64 760.07 536.32 831.14 C 570.15 776.84 599.59 719.93 629.30 663.31 C 732.75 462.50 828.31 257.71 924.35 53.33 C 953.09 43.31 983.11 34.85 1013.56 31.44 C 1034.67 27.91 1047.77 49.58 1054.82 66.08 C 1055.08 124.68 1055.24 183.34 1054.66 241.96 C 1052.26 259.43 1047.63 276.56 1044.91 294.00 C 1043.72 462.19 1045.24 631.02 1066.79 798.10 C 1080.26 894.72 1097.70 993.09 1142.37 1080.83 C 1215.48 1041.10 1285.70 996.34 1356.24 952.28 C 1401.40 923.51 1446.44 894.43 1489.59 862.69 C 1493.80 860.19 1499.08 861.25 1503.74 861.50 C 1532.72 870.50 1556.48 896.99 1558.04 928.00 C 1558.08 932.42 1560.23 938.65 1555.16 941.14 C 1466.46 1002.40 1378.17 1064.24 1289.33 1125.29 C 1265.24 1140.69 1241.06 1155.92 1216.95 1171.28 C 1248.67 1200.70 1281.14 1230.01 1319.84 1250.10 C 1403.57 1295.80 1493.56 1328.54 1583.51 1359.60 C 1583.94 1370.06 1583.65 1380.54 1583.72 1391.00 C 1584.08 1394.21 1581.31 1397.30 1578.03 1396.97 C 1499.08 1397.96 1419.54 1386.78 1345.09 1359.97 C 1264.93 1331.55 1192.04 1284.41 1130.96 1225.45 C 1055.11 1276.65 978.81 1327.50 898.45 1371.44 C 867.66 1387.79 836.44 1404.13 802.82 1413.85 C 783.11 1419.98 762.28 1417.72 741.99 1417.80 C 728.66 1417.90 718.53 1403.08 722.85 1390.84 C 733.77 1376.54 748.33 1365.55 761.85 1353.84 C 856.14 1277.73 955.43 1208.11 1053.94 1137.64 C 1022.56 1091.90 986.79 1046.69 973.16 991.86 C 931.49 849.29 919.55 700.08 914.56 552.26 C 912.22 477.72 913.86 403.13 913.11 328.58 C 907.15 327.53 906.51 334.54 904.42 338.44 C 793.05 591.40 668.18 838.69 524.77 1075.08 C 490.45 1077.93 458.77 1061.14 425.87 1053.90 C 425.52 901.27 425.83 748.63 425.72 596.00 C 423.74 554.83 431.13 514.14 436.00 473.55 C 430.07 472.63 429.59 479.67 427.54 483.56 C 345.03 678.43 237.07 862.16 110.75 1031.78 C 87.10 1048.68 56.27 1042.96 29.00 1044.00 C 23.22 1043.04 14.79 1046.72 11.14 1040.67 C 10.16 1029.59 10.89 1018.36 10.83 1007.23 C 20.95 1004.49 28.07 996.32 35.00 989.00 C 55.06 966.28 72.07 941.09 88.95 915.97 C 140.62 837.40 187.65 755.91 234.34 674.32 C 239.19 666.27 243.13 657.73 247.20 649.27 C 343.16 448.96 423.35 241.52 498.74 32.75 C 519.39 24.64 542.12 20.24 563.56 13.50 Z" />
</g>
</svg>
